<svg xmlns="http://www.w3.org/2000/svg" xmlns:xlink="http://www.w3.org/1999/xlink" width="54" height="54" viewBox="0 0 54 54">
  <defs>
    <clipPath id="clip-path">
      <rect id="Rectangle_276" data-name="Rectangle 276" width="54" height="54" transform="translate(1509 7887)" fill="#fff" stroke="#707070" stroke-width="1" opacity="0.8"/>
    </clipPath>
  </defs>
  <g id="discord" transform="translate(-1509 -7887)" clip-path="url(#clip-path)">
    <g id="Group_262" data-name="Group 262" transform="translate(1514.955 7898.708)" opacity="0.851">
      <path id="Path_527" data-name="Path 527" d="M75.144,99.056s-1.324-1.581-2.427-2.978A11.6,11.6,0,0,0,79.373,91.7a21.043,21.043,0,0,1-4.229,2.17,24.2,24.2,0,0,1-5.332,1.581,25.76,25.76,0,0,1-9.524-.037,30.869,30.869,0,0,1-5.405-1.581,21.559,21.559,0,0,1-2.684-1.25c-.11-.074-.221-.11-.331-.184a.508.508,0,0,1-.147-.11c-.662-.368-1.03-.625-1.03-.625A11.436,11.436,0,0,0,57.126,96c-1.1,1.4-2.464,3.052-2.464,3.052-8.126-.257-11.215-5.589-11.215-5.589a49.244,49.244,0,0,1,5.3-21.438,18.183,18.183,0,0,1,10.333-3.861l.368.441c-6.619,1.912-9.671,4.817-9.671,4.817s.809-.441,2.17-1.066a27.61,27.61,0,0,1,8.347-2.317,3.6,3.6,0,0,1,.625-.074,31.107,31.107,0,0,1,7.428-.073,29.974,29.974,0,0,1,11.068,3.53s-2.9-2.758-9.156-4.67l.515-.588A18.183,18.183,0,0,1,81.1,72.029a49.242,49.242,0,0,1,5.3,21.438S83.27,98.8,75.144,99.056Zm-17.1-17.172A4.1,4.1,0,1,0,61.8,85.965a3.918,3.918,0,0,0-3.751-4.081m13.422,0a4.1,4.1,0,1,0,3.751,4.081,3.918,3.918,0,0,0-3.751-4.081" transform="translate(-43.447 -68.168)" fill="#fff"/>
    </g>
  </g>
</svg>
