<svg xmlns="http://www.w3.org/2000/svg" xmlns:xlink="http://www.w3.org/1999/xlink" width="54" height="54" viewBox="0 0 54 54">
  <defs>
    <clipPath id="clip-path">
      <rect id="Rectangle_277" data-name="Rectangle 277" width="54" height="54" transform="translate(1597 7885)" fill="#fff" stroke="#707070" stroke-width="1" opacity="0.8"/>
    </clipPath>
  </defs>
  <g id="twitter" transform="translate(-1597 -7885)" clip-path="url(#clip-path)">
    <g id="Logo" transform="translate(1605 7897)" opacity="0.851">
      <path id="white_background" data-name="white background" d="M35.056,9.172c.023.334.023.669.023,1.007,0,10.285-7.83,22.148-22.148,22.148V32.32A22.036,22.036,0,0,1,1,28.831a15.834,15.834,0,0,0,1.853.113A15.63,15.63,0,0,0,12.52,25.6,7.794,7.794,0,0,1,5.248,20.2a7.759,7.759,0,0,0,3.514-.134,7.785,7.785,0,0,1-6.244-7.63v-.1a7.735,7.735,0,0,0,3.533.974A7.794,7.794,0,0,1,3.642,2.917,22.093,22.093,0,0,0,19.684,11.05a7.791,7.791,0,0,1,13.265-7.1,15.62,15.62,0,0,0,4.943-1.89,7.813,7.813,0,0,1-3.422,4.305,15.481,15.481,0,0,0,4.47-1.225A15.813,15.813,0,0,1,35.056,9.172Z" transform="translate(-1 -1.497)" fill="#fff"/>
    </g>
  </g>
</svg>
