<svg xmlns="http://www.w3.org/2000/svg" width="2320.44" height="1116.791" viewBox="0 0 2320.44 1116.791">
  <g id="Group_256" data-name="Group 256" transform="translate(426.226 -73.244)">
    <path id="YOUR" d="M-178.422-335.756a183.578,183.578,0,0,1,35.858,3.353,138.7,138.7,0,0,1,31.212,10.063A142.625,142.625,0,0,1-84.86-306.422,132.54,132.54,0,0,1-63.14-285.5,150.929,150.929,0,0,1-46.2-260.032a172.146,172.146,0,0,1,12.162,29.553,215.236,215.236,0,0,1,7.329,32.669,243.95,243.95,0,0,1,2.443,34.824,237.575,237.575,0,0,1-2.443,34.37A209.455,209.455,0,0,1-34.039-96.4,173.983,173.983,0,0,1-46.144-67.189,154.562,154.562,0,0,1-62.912-41.837,133.017,133.017,0,0,1-84.4-20.857,143.43,143.43,0,0,1-110.669-4.768,135.326,135.326,0,0,1-141.6,5.466a176.85,176.85,0,0,1-35.462,3.41,176.852,176.852,0,0,1-35.462-3.41A135.326,135.326,0,0,1-243.452-4.768a143.43,143.43,0,0,1-26.264-16.088,133.018,133.018,0,0,1-21.492-20.98A151.888,151.888,0,0,1-307.92-67.189,170.45,170.45,0,0,1-319.855-96.4a213.7,213.7,0,0,1-7.159-32.215,243.144,243.144,0,0,1-2.386-34.369,242.743,242.743,0,0,1,2.443-34.767,212.036,212.036,0,0,1,7.33-32.5,174.5,174.5,0,0,1,12.105-29.382,153.458,153.458,0,0,1,16.769-25.409,135.433,135.433,0,0,1,21.378-20.979,143.129,143.129,0,0,1,25.923-16.089,131.927,131.927,0,0,1,30.362-10.235A169.437,169.437,0,0,1-178.422-335.756ZM-177.06,8.376a176.351,176.351,0,0,0,35.362-3.4,134.83,134.83,0,0,0,30.815-10.2A142.934,142.934,0,0,0-84.711-21.252,132.525,132.525,0,0,0-63.3-42.153a154.073,154.073,0,0,0,16.714-25.27A173.49,173.49,0,0,0-34.515-96.55,208.976,208.976,0,0,0-27.2-128.689a237.1,237.1,0,0,0,2.438-34.3A243.441,243.441,0,0,0-27.2-197.738a214.756,214.756,0,0,0-7.312-32.593A171.663,171.663,0,0,0-46.643-259.8,150.449,150.449,0,0,0-63.526-285.18a132.042,132.042,0,0,0-21.638-20.844,142.118,142.118,0,0,0-26.4-15.862,138.2,138.2,0,0,0-31.1-10.026,183.082,183.082,0,0,0-35.76-3.343,168.938,168.938,0,0,0-34.566,3.4,131.418,131.418,0,0,0-30.247,10.2,142.613,142.613,0,0,0-25.833,16.032,134.93,134.93,0,0,0-21.3,20.9A152.977,152.977,0,0,0-307.08-259.4a174.031,174.031,0,0,0-12.07,29.3,211.568,211.568,0,0,0-7.312,32.423,242.254,242.254,0,0,0-2.438,34.7,242.642,242.642,0,0,0,2.381,34.3,213.211,213.211,0,0,0,7.142,32.139,169.95,169.95,0,0,0,11.9,29.127A151.392,151.392,0,0,0-290.82-42.153a132.525,132.525,0,0,0,21.411,20.9A142.934,142.934,0,0,0-243.237-5.22a134.83,134.83,0,0,0,30.815,10.2A176.351,176.351,0,0,0-177.06,8.376ZM-625.609-327.13h36l.073.12L-493.5-169.818l98.377-157.312h36.462l-.248.385L-477.358-142.483V.25H-508.73V-140.214Zm35.723.5h-34.82L-508.23-140.358V-.25h30.372V-142.629l.04-.062L-359.572-326.63h-35.269L-493.5-168.866l-.211-.345Zm626.864-.5H68.35v195.016a264.177,264.177,0,0,0,1.417,28.263,168.984,168.984,0,0,0,4.25,24,107.834,107.834,0,0,0,7.077,19.732,72.813,72.813,0,0,0,9.9,15.468,64.551,64.551,0,0,0,13.03,11.674,75.894,75.894,0,0,0,16.488,8.343,104.4,104.4,0,0,0,19.956,5.01,154.854,154.854,0,0,0,23.428,1.671A157.485,157.485,0,0,0,188.2-19.712a100.984,100.984,0,0,0,20.323-5.264A73.388,73.388,0,0,0,225.1-33.8a65.178,65.178,0,0,0,13.059-12.437,78.119,78.119,0,0,0,9.73-16.009,103.628,103.628,0,0,0,6.567-19.532,180.99,180.99,0,0,0,3.74-23.235c.828-8.352,1.247-17.47,1.247-27.1V-327.13H290.81v204.1a219.2,219.2,0,0,1-1.974,30.155,157.129,157.129,0,0,1-5.926,26.388,119.47,119.47,0,0,1-9.881,22.62A101.549,101.549,0,0,1,259.19-25.026a93.135,93.135,0,0,1-17.825,14.838A106.638,106.638,0,0,1,219.536.406a140.357,140.357,0,0,1-25.825,6.353,199.308,199.308,0,0,1-29.817,2.117,197.683,197.683,0,0,1-30-2.159A138.612,138.612,0,0,1,107.967.235,105.178,105.178,0,0,1,86.123-10.573,92.293,92.293,0,0,1,68.369-25.71,106,106,0,0,1,54.631-44.766a121.942,121.942,0,0,1-9.81-22.576,156.4,156.4,0,0,1-5.883-26.09,213.447,213.447,0,0,1-1.96-29.6Zm30.872.5H37.478v203.6A212.943,212.943,0,0,0,39.433-93.5,155.9,155.9,0,0,0,45.3-67.5a121.445,121.445,0,0,0,9.769,22.483A105.506,105.506,0,0,0,68.739-26.046,91.8,91.8,0,0,0,86.4-10.992,104.674,104.674,0,0,0,108.137-.235a138.1,138.1,0,0,0,25.831,6.458,197.18,197.18,0,0,0,29.926,2.154,198.821,198.821,0,0,0,29.742-2.111,139.866,139.866,0,0,0,25.732-6.33A106.126,106.126,0,0,0,241.1-10.61a92.643,92.643,0,0,0,17.729-14.758,101.055,101.055,0,0,0,13.77-18.752,118.976,118.976,0,0,0,9.839-22.525,156.641,156.641,0,0,0,5.906-26.3,218.687,218.687,0,0,0,1.97-30.086v-203.6H259.938v194.516c0,9.648-.42,18.783-1.25,27.151a181.46,181.46,0,0,1-3.751,23.3,104.129,104.129,0,0,1-6.6,19.626,78.62,78.62,0,0,1-9.792,16.111,65.682,65.682,0,0,1-13.159,12.533A73.9,73.9,0,0,1,208.7-24.51a101.477,101.477,0,0,1-20.424,5.291,157.963,157.963,0,0,1-24.385,1.762,155.357,155.357,0,0,1-23.5-1.677,104.894,104.894,0,0,1-20.052-5.035,76.393,76.393,0,0,1-16.6-8.4A65.059,65.059,0,0,1,90.609-44.33,73.317,73.317,0,0,1,80.644-59.9a108.335,108.335,0,0,1-7.111-19.823A169.5,169.5,0,0,1,69.27-103.8a264.661,264.661,0,0,1-1.42-28.317Zm296.008-.5H492.136a243.126,243.126,0,0,1,25.45,1.264,169.542,169.542,0,0,1,22.279,3.794,119.713,119.713,0,0,1,19.108,6.327,88.972,88.972,0,0,1,15.935,8.864,62.6,62.6,0,0,1,12.563,11.723,64.76,64.76,0,0,1,8.973,14.883,82.17,82.17,0,0,1,5.38,18.03,118.315,118.315,0,0,1,1.792,21.17,113.247,113.247,0,0,1-3.129,27.756,66.649,66.649,0,0,1-9.4,21.418,74.386,74.386,0,0,1-16.456,16.855A125.1,125.1,0,0,1,550.92-161.2a60.275,60.275,0,0,1,12.4,5.949,44.393,44.393,0,0,1,9.816,8.447,64.056,64.056,0,0,1,7.179,10.255,66.906,66.906,0,0,1,5.127,11.62,111.335,111.335,0,0,1,5.233,25.936c.754,9.041,1.288,17.9,1.59,26.344.3,12.351.836,22.732,1.588,30.858a189.618,189.618,0,0,0,2.72,19.949,46.791,46.791,0,0,0,3.835,11.965,18.268,18.268,0,0,0,5.372,6.5l.1.075V.25h-34.44l-.073-.12a43.732,43.732,0,0,1-4.282-9.817,83.537,83.537,0,0,1-2.79-12.978c-1.356-9.645-2.426-19.885-3.18-30.435s-1.364-20.931-1.816-30.878a179.388,179.388,0,0,0-2.493-24.481,64.461,64.461,0,0,0-3.56-11.811,40.981,40.981,0,0,0-5.245-9.194,42.206,42.206,0,0,0-6.713-6.939,39.031,39.031,0,0,0-7.951-5.018,63.654,63.654,0,0,0-19.22-5.426,174.342,174.342,0,0,0-21.987-1.36H395.23V.25H363.858ZM605.386-3.05a18.856,18.856,0,0,1-5.419-6.594,47.27,47.27,0,0,1-3.883-12.1,190.064,190.064,0,0,1-2.728-20c-.754-8.137-1.288-18.53-1.59-30.889-.3-8.428-.835-17.284-1.588-26.317a110.837,110.837,0,0,0-5.209-25.82,66.4,66.4,0,0,0-5.088-11.534,63.533,63.533,0,0,0-7.122-10.175,43.9,43.9,0,0,0-9.706-8.351,60.263,60.263,0,0,0-12.886-6.1l-.6-.2.574-.259a125.308,125.308,0,0,0,24.184-14.045,73.887,73.887,0,0,0,16.346-16.741A66.147,66.147,0,0,0,600-213.442a112.744,112.744,0,0,0,3.114-27.632,117.817,117.817,0,0,0-1.784-21.08,81.671,81.671,0,0,0-5.346-17.921,64.264,64.264,0,0,0-8.9-14.769,62.107,62.107,0,0,0-12.463-11.63,88.477,88.477,0,0,0-15.845-8.814,119.223,119.223,0,0,0-19.028-6.3,169.038,169.038,0,0,0-22.213-3.782,242.633,242.633,0,0,0-25.4-1.261H364.358V-.25H394.73V-148.708h97.406a174.855,174.855,0,0,1,22.051,1.364,64.157,64.157,0,0,1,19.37,5.47,39.543,39.543,0,0,1,8.053,5.083,42.717,42.717,0,0,1,6.793,7.021,41.483,41.483,0,0,1,5.31,9.306,64.968,64.968,0,0,1,3.59,11.907A179.82,179.82,0,0,1,559.8-84c.452,9.943,1.063,20.328,1.816,30.866s1.821,20.767,3.176,30.4a83.038,83.038,0,0,0,2.772,12.9A43.442,43.442,0,0,0,571.727-.25h33.659Zm-782.9-306.374a139.673,139.673,0,0,1,26.834,2.5,114.971,114.971,0,0,1,24.114,7.508,105.939,105.939,0,0,1,21.047,12.287A106.084,106.084,0,0,1-87.884-270.29a121.4,121.4,0,0,1,14.046,21.1,148.351,148.351,0,0,1,10.289,25.069,180.008,180.008,0,0,1,6.308,28.812,238.456,238.456,0,0,1,2.1,32.325A221.742,221.742,0,0,1-56.9-134.92a206.121,206.121,0,0,1-5.284,26.932A148.226,148.226,0,0,1-71.165-83.2,128.548,128.548,0,0,1-84.016-61.6a107.417,107.417,0,0,1-16.837,18.032,114.581,114.581,0,0,1-20.93,14.048,100.806,100.806,0,0,1-25.2,9.046,138.462,138.462,0,0,1-29.621,3.014,143.829,143.829,0,0,1-29.96-2.956,101.848,101.848,0,0,1-25.316-8.875,111.984,111.984,0,0,1-20.931-13.878A105.649,105.649,0,0,1-269.65-61.142,128.55,128.55,0,0,1-282.5-82.749a148.223,148.223,0,0,1-8.982-24.785,205.4,205.4,0,0,1-5.284-27.046,226.276,226.276,0,0,1-1.761-28.406,221.745,221.745,0,0,1,1.761-28.066,206.133,206.133,0,0,1,5.284-26.932,150.083,150.083,0,0,1,8.982-24.841,131.635,131.635,0,0,1,12.85-21.777,108.891,108.891,0,0,1,16.837-18.259,115.566,115.566,0,0,1,20.929-14.275,99.847,99.847,0,0,1,25.089-9.217A133.333,133.333,0,0,1-177.514-309.424Zm.908,291.468a137.968,137.968,0,0,0,29.513-3,100.31,100.31,0,0,0,25.078-9,114.085,114.085,0,0,0,20.838-13.986A106.928,106.928,0,0,0-84.418-61.892a128.057,128.057,0,0,0,12.8-21.523,147.718,147.718,0,0,0,8.951-24.7A205.59,205.59,0,0,0-57.4-134.983a221.226,221.226,0,0,0,1.757-28,237.95,237.95,0,0,0-2.1-32.257,179.481,179.481,0,0,0-6.29-28.732A147.834,147.834,0,0,0-74.28-248.959,120.9,120.9,0,0,0-88.268-269.97a105.591,105.591,0,0,0-17.551-16.758,105.451,105.451,0,0,0-20.948-12.229,114.48,114.48,0,0,0-24.01-7.474,139.178,139.178,0,0,0-26.738-2.492,132.831,132.831,0,0,0-29.171,3.058,99.35,99.35,0,0,0-24.964,9.17,115.059,115.059,0,0,0-20.839,14.213,108.4,108.4,0,0,0-16.759,18.175,131.163,131.163,0,0,0-12.8,21.694A149.59,149.59,0,0,0-291-217.855a205.628,205.628,0,0,0-5.271,26.867,221.231,221.231,0,0,0-1.757,28,225.773,225.773,0,0,0,1.757,28.344A204.885,204.885,0,0,0-291-107.663a147.718,147.718,0,0,0,8.951,24.7,128.057,128.057,0,0,0,12.8,21.523,105.145,105.145,0,0,0,16.758,17.89,111.471,111.471,0,0,0,20.837,13.816A101.347,101.347,0,0,0-206.461-20.9,143.322,143.322,0,0,0-176.606-17.956ZM394.73-300.8h98.314a159.627,159.627,0,0,1,29.784,2.728,82.846,82.846,0,0,1,13.548,3.757,70.057,70.057,0,0,1,11.96,5.809,49.58,49.58,0,0,1,10.039,8.1,52.4,52.4,0,0,1,7.755,10.606,49.345,49.345,0,0,1,4.963,13.461,77.957,77.957,0,0,1,1.652,16.625,76.593,76.593,0,0,1-1.595,16.056,54.305,54.305,0,0,1-4.789,13.569,59.4,59.4,0,0,1-7.523,11.227,57.261,57.261,0,0,1-9.8,9.063,67.02,67.02,0,0,1-11.905,6.893,80.466,80.466,0,0,1-13.833,4.725,134.584,134.584,0,0,1-32.067,3.639h-96.5Zm96.5,125.758a134.082,134.082,0,0,0,31.947-3.625,79.966,79.966,0,0,0,13.747-4.7,66.532,66.532,0,0,0,11.816-6.841,56.762,56.762,0,0,0,9.718-8.984,58.9,58.9,0,0,0,7.459-11.132,53.806,53.806,0,0,0,4.745-13.444,76.1,76.1,0,0,0,1.583-15.951,77.444,77.444,0,0,0-1.64-16.517,48.85,48.85,0,0,0-4.911-13.325,51.908,51.908,0,0,0-7.681-10.5,49.079,49.079,0,0,0-9.937-8.018,69.554,69.554,0,0,0-11.875-5.768,82.337,82.337,0,0,0-13.466-3.734,159.138,159.138,0,0,0-29.69-2.72H395.23V-175.04Z" transform="translate(760.306 409)" fill="#eb4650"/>
    <path id="SHADOW" d="M415.637,8.876a176.862,176.862,0,0,1-35.462-3.41A135.337,135.337,0,0,1,349.246-4.768a143.431,143.431,0,0,1-26.265-16.088,133.038,133.038,0,0,1-21.492-20.98,151.9,151.9,0,0,1-16.712-25.352A170.458,170.458,0,0,1,272.842-96.4a213.686,213.686,0,0,1-7.159-32.215,243.155,243.155,0,0,1-2.386-34.369,242.759,242.759,0,0,1,2.443-34.767,212.03,212.03,0,0,1,7.33-32.5,174.5,174.5,0,0,1,12.105-29.382,153.471,153.471,0,0,1,16.769-25.409,135.441,135.441,0,0,1,21.378-20.98,143.132,143.132,0,0,1,25.923-16.088,131.915,131.915,0,0,1,30.362-10.235,169.441,169.441,0,0,1,34.669-3.41,183.572,183.572,0,0,1,35.858,3.353,138.679,138.679,0,0,1,31.212,10.063,142.617,142.617,0,0,1,26.492,15.918,132.545,132.545,0,0,1,21.72,20.924,150.954,150.954,0,0,1,16.94,25.466,172.129,172.129,0,0,1,12.162,29.553,215.235,215.235,0,0,1,7.329,32.669,243.941,243.941,0,0,1,2.443,34.824,237.566,237.566,0,0,1-2.443,34.37,209.449,209.449,0,0,1-7.33,32.216,173.972,173.972,0,0,1-12.105,29.212,154.576,154.576,0,0,1-16.769,25.352,133.036,133.036,0,0,1-21.492,20.98A143.429,143.429,0,0,1,482.028-4.768,135.334,135.334,0,0,1,451.1,5.466,176.86,176.86,0,0,1,415.637,8.876Zm-1.362-344.132a168.929,168.929,0,0,0-34.566,3.4,131.419,131.419,0,0,0-30.247,10.2,142.647,142.647,0,0,0-25.833,16.032,134.933,134.933,0,0,0-21.3,20.9A152.956,152.956,0,0,0,285.617-259.4a174.034,174.034,0,0,0-12.07,29.3,211.56,211.56,0,0,0-7.312,32.423,242.274,242.274,0,0,0-2.438,34.7,242.623,242.623,0,0,0,2.381,34.3,213.173,213.173,0,0,0,7.142,32.139,169.949,169.949,0,0,0,11.9,29.127,151.392,151.392,0,0,0,16.657,25.269,132.51,132.51,0,0,0,21.411,20.9A142.931,142.931,0,0,0,349.46-5.22a134.824,134.824,0,0,0,30.815,10.2,176.333,176.333,0,0,0,35.362,3.4A176.336,176.336,0,0,0,451,4.976a134.829,134.829,0,0,0,30.815-10.2,142.933,142.933,0,0,0,26.173-16.032,132.51,132.51,0,0,0,21.411-20.9,154.05,154.05,0,0,0,16.714-25.269,173.481,173.481,0,0,0,12.07-29.127,208.975,208.975,0,0,0,7.312-32.139,237.1,237.1,0,0,0,2.438-34.3,243.432,243.432,0,0,0-2.438-34.752,214.746,214.746,0,0,0-7.312-32.593A171.645,171.645,0,0,0,546.054-259.8a150.44,150.44,0,0,0-16.883-25.382,132.026,132.026,0,0,0-21.637-20.844,142.123,142.123,0,0,0-26.4-15.862,138.2,138.2,0,0,0-31.1-10.026A183.072,183.072,0,0,0,414.275-335.256ZM-858.287,8.876a178.532,178.532,0,0,1-24.55-1.648,150.974,150.974,0,0,1-22.738-4.945,113.821,113.821,0,0,1-20.361-8.3,98.961,98.961,0,0,1-17.41-11.72,90.458,90.458,0,0,1-14.17-15.024,96.3,96.3,0,0,1-10.64-18.207,97.18,97.18,0,0,1-6.657-21.564,134.811,134.811,0,0,1-2.218-25.074v-.25h30.444l.019.229a117.479,117.479,0,0,0,3.341,20.1,80.921,80.921,0,0,0,6.393,16.8,79.2,79.2,0,0,0,9.051,13.747,69.069,69.069,0,0,0,11.309,10.913,77.191,77.191,0,0,0,13.406,8.2,86.417,86.417,0,0,0,15.335,5.6,127.625,127.625,0,0,0,16.878,3.228,147.735,147.735,0,0,0,18.016,1.076,142.645,142.645,0,0,0,20.281-1.36,95.955,95.955,0,0,0,17.32-4.075,84.283,84.283,0,0,0,14.372-6.393,61.19,61.19,0,0,0,11.417-8.308,60.176,60.176,0,0,0,8.647-10,56.77,56.77,0,0,0,6.045-11.47,69.392,69.392,0,0,0,3.562-12.553,73.237,73.237,0,0,0,1.188-13.234,64.131,64.131,0,0,0-2.147-17.185,41.944,41.944,0,0,0-6.431-13.54,63.446,63.446,0,0,0-9.892-10.684,71.175,71.175,0,0,0-12.5-8.539A137.917,137.917,0,0,0-832.7-147.308c-11.893-3.011-24.263-5.989-36.768-8.852s-24.89-6.3-36.8-10.221a126.229,126.229,0,0,1-16.945-6.937,108.383,108.383,0,0,1-14.9-8.987,75.374,75.374,0,0,1-12.584-11.445,80.948,80.948,0,0,1-9.962-14.288,65.931,65.931,0,0,1-6.495-17.83,104.4,104.4,0,0,1-2.162-22.015,79.142,79.142,0,0,1,1.765-16.624,83.376,83.376,0,0,1,5.294-16.165,78.867,78.867,0,0,1,8.767-15.03,86.784,86.784,0,0,1,12.18-13.2,90.552,90.552,0,0,1,15.649-11.04,119.021,119.021,0,0,1,19.165-8.531,125.99,125.99,0,0,1,22.518-5.459,173.029,173.029,0,0,1,25.688-1.819,165.707,165.707,0,0,1,25.974,1.933,117.125,117.125,0,0,1,22.464,5.8,108.8,108.8,0,0,1,18.942,9.158,87.243,87.243,0,0,1,15.423,12.009,88.793,88.793,0,0,1,11.951,14.512A87.85,87.85,0,0,1-755-275.668a101.386,101.386,0,0,1,5.12,18.319,109.693,109.693,0,0,1,1.706,19.453v.25h-30.01v-.25a86.9,86.9,0,0,0-1.641-17.315,63.022,63.022,0,0,0-4.917-14.81,64.048,64.048,0,0,0-7.744-12.323,58.387,58.387,0,0,0-10.115-9.832,73.874,73.874,0,0,0-12.1-7.466,80.629,80.629,0,0,0-13.691-5.2,110.4,110.4,0,0,0-29.9-4.077,133.673,133.673,0,0,0-21.694,1.642,83.833,83.833,0,0,0-17.936,4.922,82.666,82.666,0,0,0-14.427,7.525,59.9,59.9,0,0,0-11.134,9.438,61.216,61.216,0,0,0-8.026,10.965,55.114,55.114,0,0,0-5.084,12.09,57.331,57.331,0,0,0-2.147,12.657,55.26,55.26,0,0,0,.791,12.655,51.107,51.107,0,0,0,4.517,14.233,39.852,39.852,0,0,0,8.121,11.054,72.951,72.951,0,0,0,11.085,8.653,89.443,89.443,0,0,0,13.355,6.961,185.34,185.34,0,0,0,31.964,9.974c11.615,2.565,23.607,5.314,35.643,8.173a366.424,366.424,0,0,1,35.209,10.222,116.8,116.8,0,0,1,16.095,6.938,102.428,102.428,0,0,1,14.165,8.989,71.062,71.062,0,0,1,11.9,11.447,78.053,78.053,0,0,1,9.28,14.29,69.728,69.728,0,0,1,5.981,17.713,110,110,0,0,1,1.991,21.671A112.966,112.966,0,0,1-740.6-65.243a87.756,87.756,0,0,1-5.891,18.924,78.4,78.4,0,0,1-9.821,16.368,83.33,83.33,0,0,1-13.746,13.8A97.079,97.079,0,0,1-787.352-5.2a119.133,119.133,0,0,1-20.473,7.82A158.507,158.507,0,0,1-831.47,7.313,219.4,219.4,0,0,1-858.287,8.876ZM-976.531-97.36a134.071,134.071,0,0,0,2.209,24.73A96.666,96.666,0,0,0-967.7-51.177a95.787,95.787,0,0,0,10.585,18.113,89.936,89.936,0,0,0,14.092,14.94A98.444,98.444,0,0,0-925.7-6.463,113.333,113.333,0,0,0-905.431,1.8a150.478,150.478,0,0,0,22.662,4.929,178.015,178.015,0,0,0,24.481,1.643,218.918,218.918,0,0,0,26.755-1.559,158.013,158.013,0,0,0,23.571-4.674,118.615,118.615,0,0,0,20.387-7.786,96.6,96.6,0,0,0,17.207-10.9A82.839,82.839,0,0,0-756.7-30.26a77.9,77.9,0,0,0,9.758-16.264,87.246,87.246,0,0,0,5.856-18.815,112.456,112.456,0,0,0,1.953-21.375,109.508,109.508,0,0,0-1.981-21.572,69.229,69.229,0,0,0-5.936-17.586,77.58,77.58,0,0,0-9.22-14.2,70.566,70.566,0,0,0-11.819-11.366,101.893,101.893,0,0,0-14.1-8.945,116.305,116.305,0,0,0-16.026-6.908A365.856,365.856,0,0,0-833.375-177.5c-12.034-2.858-24.023-5.607-35.635-8.171a185.823,185.823,0,0,1-32.05-10,89.922,89.922,0,0,1-13.43-7,73.473,73.473,0,0,1-11.161-8.713,40.349,40.349,0,0,1-8.223-11.192,51.605,51.605,0,0,1-4.563-14.371,55.756,55.756,0,0,1-.8-12.767,57.841,57.841,0,0,1,2.166-12.767,55.64,55.64,0,0,1,5.13-12.2,61.714,61.714,0,0,1,8.091-11.055,60.39,60.39,0,0,1,11.226-9.517,83.164,83.164,0,0,1,14.515-7.571,84.34,84.34,0,0,1,18.044-4.953,134.158,134.158,0,0,1,21.776-1.649,110.9,110.9,0,0,1,30.032,4.1,81.144,81.144,0,0,1,13.776,5.237,74.376,74.376,0,0,1,12.185,7.516,58.87,58.87,0,0,1,10.2,9.917,64.529,64.529,0,0,1,7.8,12.42,63.514,63.514,0,0,1,4.957,14.927,87.224,87.224,0,0,1,1.65,17.165h29.01a109.113,109.113,0,0,0-1.7-19.114,100.862,100.862,0,0,0-5.095-18.228,87.343,87.343,0,0,0-8.488-16.58,88.279,88.279,0,0,0-11.884-14.43,86.738,86.738,0,0,0-15.335-11.94,108.266,108.266,0,0,0-18.854-9.115,116.592,116.592,0,0,0-22.368-5.776,165.194,165.194,0,0,0-25.9-1.926,172.545,172.545,0,0,0-25.614,1.813,125.512,125.512,0,0,0-22.428,5.437,118.482,118.482,0,0,0-19.084,8.494,90.048,90.048,0,0,0-15.563,10.979A86.286,86.286,0,0,0-953.086-295.4a78.371,78.371,0,0,0-8.712,14.934,82.9,82.9,0,0,0-5.262,16.068,78.637,78.637,0,0,0-1.754,16.518,103.9,103.9,0,0,0,2.151,21.909,65.43,65.43,0,0,0,6.444,17.695,80.44,80.44,0,0,0,9.9,14.2,74.882,74.882,0,0,0,12.5,11.369,107.893,107.893,0,0,0,14.834,8.946,125.775,125.775,0,0,0,16.878,6.91c11.892,3.914,24.257,7.349,36.752,10.209s24.883,5.843,36.78,8.855a138.445,138.445,0,0,1,31.838,12.053,71.7,71.7,0,0,1,12.586,8.6,63.977,63.977,0,0,1,9.97,10.768,42.45,42.45,0,0,1,6.508,13.7,64.622,64.622,0,0,1,2.166,17.32,73.764,73.764,0,0,1-1.2,13.325,69.941,69.941,0,0,1-3.588,12.644,57.293,57.293,0,0,1-6.1,11.571,60.67,60.67,0,0,1-8.719,10.086,61.687,61.687,0,0,1-11.51,8.377,84.752,84.752,0,0,1-14.457,6.432,96.45,96.45,0,0,1-17.411,4.1,143.153,143.153,0,0,1-20.352,1.365,148.213,148.213,0,0,1-18.077-1.08,128.1,128.1,0,0,1-16.945-3.241,86.913,86.913,0,0,1-15.424-5.635,77.684,77.684,0,0,1-13.493-8.255A69.564,69.564,0,0,1-928.169-46.66a79.716,79.716,0,0,1-9.109-13.834A81.429,81.429,0,0,1-943.711-77.4a117.715,117.715,0,0,1-3.336-19.96ZM904.334.25H869.9l-.049-.186L794.08-288.494h-.522L717.74.25H683.3l-.049-.187L598.73-327.13h31.39l.047.19L700.491-43.834h.521l75.818-283.3h34.889l.049.186,74.407,283.11h.52l71.278-283.3h32.3l-.082.314Zm-34.05-.5h33.664l85.675-326.38H958.362l-71.278,283.3h-1.3l-.049-.186L811.332-326.63H777.213l-75.818,283.3h-1.3l-.047-.19L629.73-326.63H599.376L683.691-.25h33.663l75.818-288.744h1.294l.049.186ZM60.155.25H-51.779V-327.13H60.155c9.044,0,18.06.229,26.8.681a184.262,184.262,0,0,1,25.913,3.183,130.331,130.331,0,0,1,24.791,7.505,117.168,117.168,0,0,1,23.431,13.194,101.46,101.46,0,0,1,14.905,13.142,99.994,99.994,0,0,1,11.947,15.759,169.959,169.959,0,0,1,9.378,17.5,167.9,167.9,0,0,1,7.218,18.415,211.516,211.516,0,0,1,8.636,38.181,280.659,280.659,0,0,1,2.5,35.671,275.869,275.869,0,0,1-2.045,33.172,219.825,219.825,0,0,1-6.59,32.953,170.65,170.65,0,0,1-12.049,30.917,119,119,0,0,1-8.474,14.161,120.763,120.763,0,0,1-10.407,12.909A109.492,109.492,0,0,1,164.223-28.3a94.435,94.435,0,0,1-12.917,8.99A129.116,129.116,0,0,1,123.1-7.251,169.94,169.94,0,0,1,92.414-1.34C81.861-.285,71.008.25,60.155.25ZM-51.279-.25H60.155c10.836,0,21.673-.534,32.209-1.588a169.4,169.4,0,0,0,30.6-5.893,128.61,128.61,0,0,0,28.094-12.008A93.926,93.926,0,0,0,163.9-28.681a109,109,0,0,0,11.834-11.437,120.281,120.281,0,0,0,10.367-12.859,118.534,118.534,0,0,0,8.438-14.1A170.139,170.139,0,0,0,206.556-97.9a219.281,219.281,0,0,0,6.576-32.877,275.4,275.4,0,0,0,2.041-33.112,280.175,280.175,0,0,0-2.495-35.607,211.043,211.043,0,0,0-8.616-38.091,167.427,167.427,0,0,0-7.2-18.36,169.5,169.5,0,0,0-9.35-17.453,99.512,99.512,0,0,0-11.887-15.68A100.958,100.958,0,0,0,160.8-302.161a116.639,116.639,0,0,0-23.33-13.138,129.817,129.817,0,0,0-24.7-7.477,183.761,183.761,0,0,0-25.843-3.174c-8.731-.452-17.738-.681-26.773-.681H-51.279ZM-95.2.25h-32.318l-.06-.164L-165.2-102.354H-313.768L-352.358.25h-32.32l.134-.341L-256-327.13h35.3l.061.16Zm-31.969-.5H-95.93L-221.043-326.63h-34.616L-383.944-.25h31.24l38.59-102.6h149.26l.06.164Zm-300.018.5h-31.372V-160.012h-192.9V.25h-31.372V-327.13h31.372v140.286h192.9V-327.13h31.372Zm-30.872-.5h30.372V-326.63h-30.372v140.286h-193.9V-326.63h-30.372V-.25h30.372V-160.512h193.9ZM416.091-17.456a143.817,143.817,0,0,1-29.96-2.957,101.854,101.854,0,0,1-25.316-8.875,111.982,111.982,0,0,1-20.93-13.878,105.645,105.645,0,0,1-16.838-17.975A128.555,128.555,0,0,1,310.2-82.749a148.2,148.2,0,0,1-8.982-24.785,205.356,205.356,0,0,1-5.285-27.046,226.282,226.282,0,0,1-1.761-28.406,221.7,221.7,0,0,1,1.761-28.066,206.084,206.084,0,0,1,5.284-26.932,150.09,150.09,0,0,1,8.981-24.841,131.655,131.655,0,0,1,12.85-21.776,108.9,108.9,0,0,1,16.837-18.259,115.563,115.563,0,0,1,20.929-14.275,99.842,99.842,0,0,1,25.09-9.217,133.329,133.329,0,0,1,29.281-3.071,139.671,139.671,0,0,1,26.834,2.5,114.978,114.978,0,0,1,24.115,7.508,105.944,105.944,0,0,1,21.047,12.287,106.08,106.08,0,0,1,17.634,16.838,121.4,121.4,0,0,1,14.046,21.1,148.362,148.362,0,0,1,10.289,25.069,180.035,180.035,0,0,1,6.308,28.813,238.417,238.417,0,0,1,2.1,32.325A221.751,221.751,0,0,1,535.8-134.92a206.137,206.137,0,0,1-5.284,26.932A148.207,148.207,0,0,1,521.532-83.2,128.553,128.553,0,0,1,508.681-61.6a107.443,107.443,0,0,1-16.837,18.032,114.6,114.6,0,0,1-20.93,14.048,100.817,100.817,0,0,1-25.2,9.046A138.476,138.476,0,0,1,416.091-17.456Zm-.908-291.468a132.84,132.84,0,0,0-29.171,3.058,99.347,99.347,0,0,0-24.964,9.17,115.059,115.059,0,0,0-20.839,14.213,108.406,108.406,0,0,0-16.759,18.175,131.143,131.143,0,0,0-12.8,21.694,149.593,149.593,0,0,0-8.951,24.758,205.656,205.656,0,0,0-5.271,26.867,221.238,221.238,0,0,0-1.757,28,225.739,225.739,0,0,0,1.757,28.344,204.912,204.912,0,0,0,5.271,26.98,147.723,147.723,0,0,0,8.951,24.7,128.056,128.056,0,0,0,12.8,21.523,105.125,105.125,0,0,0,16.758,17.89,111.463,111.463,0,0,0,20.837,13.816A101.346,101.346,0,0,0,386.236-20.9a143.318,143.318,0,0,0,29.855,2.945,137.964,137.964,0,0,0,29.513-3,100.307,100.307,0,0,0,25.078-9A114.084,114.084,0,0,0,491.52-43.945a106.928,106.928,0,0,0,16.759-17.948,128.046,128.046,0,0,0,12.8-21.523,147.729,147.729,0,0,0,8.951-24.7,205.656,205.656,0,0,0,5.271-26.867,221.235,221.235,0,0,0,1.757-28,237.96,237.96,0,0,0-2.1-32.257,179.5,179.5,0,0,0-6.291-28.732,147.816,147.816,0,0,0-10.254-24.985,120.893,120.893,0,0,0-13.988-21.011,105.593,105.593,0,0,0-17.551-16.758,105.461,105.461,0,0,0-20.948-12.229,114.469,114.469,0,0,0-24.01-7.475A139.169,139.169,0,0,0,415.183-308.924ZM53.345-26.082H-20.907V-300.8H53.345a359.5,359.5,0,0,1,40.434,2.272,113.445,113.445,0,0,1,18.655,3.64,83.534,83.534,0,0,1,15.938,6.375,94.811,94.811,0,0,1,15.7,10.3A81.162,81.162,0,0,1,156.6-265.518a116.83,116.83,0,0,1,9.782,14.559,118.1,118.1,0,0,1,7.507,15.924,144.346,144.346,0,0,1,5.344,17.055,154.046,154.046,0,0,1,3.3,17.962,296.042,296.042,0,0,1,2.272,36.124,258.188,258.188,0,0,1-2.5,34.992,165.339,165.339,0,0,1-8.639,34.784,124.513,124.513,0,0,1-7.222,15.979,122.983,122.983,0,0,1-9.383,14.728A72.945,72.945,0,0,1,145.1-50.769a77.81,77.81,0,0,1-14.916,9.679,128.9,128.9,0,0,1-18.931,8.129,102.783,102.783,0,0,1-18.6,4.38A293.779,293.779,0,0,1,53.345-26.082Zm-73.752-.5H53.345a293.3,293.3,0,0,0,39.237-2.495,102.31,102.31,0,0,0,18.512-4.359,128.391,128.391,0,0,0,18.861-8.1,77.338,77.338,0,0,0,14.825-9.618,72.449,72.449,0,0,0,11.876-12.555A122.449,122.449,0,0,0,166-78.377a123.986,123.986,0,0,0,7.193-15.915,164.838,164.838,0,0,0,8.613-34.678,257.685,257.685,0,0,0,2.495-34.924,295.561,295.561,0,0,0-2.268-36.062,153.553,153.553,0,0,0-3.286-17.9,143.868,143.868,0,0,0-5.325-17,117.632,117.632,0,0,0-7.475-15.856,116.327,116.327,0,0,0-9.74-14.5,80.671,80.671,0,0,0-12.446-12.616,94.308,94.308,0,0,0-15.622-10.244,83.049,83.049,0,0,0-15.843-6.337,112.973,112.973,0,0,0-18.573-3.624A359,359,0,0,0,53.345-300.3H-20.407Zm-154.7-102.1H-303.859l.126-.337,64.248-172.24.234.628Zm-128.028-.5h127.308l-63.654-170.647Z" transform="translate(777.425 793.66)" fill="#eb4650"/>
    <path id="IS_WAITING" data-name="IS WAITING" d="M1016.506,8.876a159.642,159.642,0,0,1-29.784-2.728,141.182,141.182,0,0,1-27.516-8.187A123.386,123.386,0,0,1,934.641-15.63a125.3,125.3,0,0,1-20.926-18.935,134.169,134.169,0,0,1-17-24.391,176.242,176.242,0,0,1-12.787-29.95,207.266,207.266,0,0,1-8.012-35.455,296.993,296.993,0,0,1-2.67-40.895,259.341,259.341,0,0,1,2.272-34.708,222.306,222.306,0,0,1,6.818-32.327,163.012,163.012,0,0,1,11.538-29.1,142.461,142.461,0,0,1,16.43-25.014,128.815,128.815,0,0,1,21.266-20.526,139.742,139.742,0,0,1,26.038-15.634,136.031,136.031,0,0,1,30.986-9.893,187.917,187.917,0,0,1,36.084-3.3,193.052,193.052,0,0,1,25.059,1.591,165.254,165.254,0,0,1,23.359,4.774,135,135,0,0,1,21.378,8.017,124.185,124.185,0,0,1,19.107,11.316,114.584,114.584,0,0,1,16.551,14.56,120.582,120.582,0,0,1,13.7,17.743,121.074,121.074,0,0,1,10.578,21.1,155.11,155.11,0,0,1,7.162,24.612l.062.3h-32.287l-.044-.195a101.15,101.15,0,0,0-5.491-17.209,92.013,92.013,0,0,0-8.32-15.394,98.107,98.107,0,0,0-10.7-13.3,91.784,91.784,0,0,0-12.621-10.923,102.51,102.51,0,0,0-14.379-8.605,110.382,110.382,0,0,0-15.967-6.341,115.032,115.032,0,0,0-17.1-3.907,120.779,120.779,0,0,0-17.783-1.3,149.72,149.72,0,0,0-29.914,2.832A105.99,105.99,0,0,0,971.67-297.6a103.879,103.879,0,0,0-21.061,13.644,102.208,102.208,0,0,0-16.983,18.286,125.555,125.555,0,0,0-12.97,22.655,158.317,158.317,0,0,0-9.009,26.744,239.427,239.427,0,0,0-5.272,30.216A300.876,300.876,0,0,0,904.618-153a175.405,175.405,0,0,0,1.983,26.521,161.159,161.159,0,0,0,5.95,25.158,139.915,139.915,0,0,0,9.744,23A125.737,125.737,0,0,0,935.661-58.27a110.427,110.427,0,0,0,16.873,16.647,114.188,114.188,0,0,0,20.272,12.8A101.614,101.614,0,0,0,996.3-20.674a125.527,125.527,0,0,0,26.563,2.718,133.018,133.018,0,0,0,27.189-2.946,107.011,107.011,0,0,0,27.176-9.738,100.957,100.957,0,0,0,12.681-7.812,110.588,110.588,0,0,0,11.777-9.852,91.568,91.568,0,0,0,10.526-12.111,111.256,111.256,0,0,0,8.946-14.609,118.789,118.789,0,0,0,6.511-15.741,116.672,116.672,0,0,0,4.134-16.422,238.8,238.8,0,0,0,3.395-35.119H1024.882v-26.832h140.332V.25h-26.832V-54.936a158.005,158.005,0,0,1-19.316,25.823,108.223,108.223,0,0,1-12,11.149,112.21,112.21,0,0,1-13.707,9.328,111.562,111.562,0,0,1-15.7,7.451,141.182,141.182,0,0,1-17.965,5.514,161.069,161.069,0,0,1-20.348,3.41A219.439,219.439,0,0,1,1016.506,8.876Zm8.172-344.132a187.413,187.413,0,0,0-35.988,3.287,135.524,135.524,0,0,0-30.872,9.856,139.269,139.269,0,0,0-25.945,15.578,128.322,128.322,0,0,0-21.183,20.447,141.955,141.955,0,0,0-16.372,24.926,162.509,162.509,0,0,0-11.5,29.011,221.8,221.8,0,0,0-6.8,32.254,258.88,258.88,0,0,0-2.268,34.641,296.455,296.455,0,0,0,2.665,40.825A206.727,206.727,0,0,0,884.4-89.062,175.726,175.726,0,0,0,897.153-59.2,133.659,133.659,0,0,0,914.09-34.9a124.794,124.794,0,0,0,20.842,18.86A122.879,122.879,0,0,0,959.4-2.5a140.692,140.692,0,0,0,27.418,8.157,159.143,159.143,0,0,0,29.69,2.719,219,219,0,0,0,22.787-1.134,160.608,160.608,0,0,0,20.285-3.4,140.655,140.655,0,0,0,17.9-5.495,111.02,111.02,0,0,0,15.628-7.417,111.7,111.7,0,0,0,13.646-9.286,107.724,107.724,0,0,0,11.947-11.1,157.687,157.687,0,0,0,19.718-26.517l.465-.783V-.25h25.832V-168.638H1025.382v25.832H1135.71l-.006.256A239.489,239.489,0,0,1,1132.3-107.1a117.122,117.122,0,0,1-4.151,16.493,119.274,119.274,0,0,1-6.54,15.81,111.745,111.745,0,0,1-8.988,14.677,92.1,92.1,0,0,1-10.584,12.177,111.1,111.1,0,0,1-11.831,9.9,101.491,101.491,0,0,1-12.744,7.851,107.508,107.508,0,0,1-27.3,9.784,133.512,133.512,0,0,1-27.291,2.956,126.019,126.019,0,0,1-26.669-2.73,102.13,102.13,0,0,1-23.609-8.192,114.7,114.7,0,0,1-20.361-12.854,110.9,110.9,0,0,1-16.95-16.722,126.256,126.256,0,0,1-13.42-20.129,140.436,140.436,0,0,1-9.779-23.082,161.674,161.674,0,0,1-5.968-25.236,175.874,175.874,0,0,1-1.989-26.6,301.312,301.312,0,0,1,1.761-33.113,239.953,239.953,0,0,1,5.283-30.279,158.823,158.823,0,0,1,9.038-26.828,126.057,126.057,0,0,1,13.022-22.745,102.7,102.7,0,0,1,17.067-18.375,104.358,104.358,0,0,1,21.162-13.71,106.469,106.469,0,0,1,25.484-8.533,150.219,150.219,0,0,1,30.014-2.843,121.291,121.291,0,0,1,17.856,1.308,115.567,115.567,0,0,1,17.176,3.924,110.9,110.9,0,0,1,16.04,6.371,102.983,102.983,0,0,1,14.449,8.647,92.261,92.261,0,0,1,12.69,10.983,98.612,98.612,0,0,1,10.754,13.37,92.532,92.532,0,0,1,8.365,15.478,101.565,101.565,0,0,1,5.474,17.1h31.273a154.419,154.419,0,0,0-7.076-24.232,120.609,120.609,0,0,0-10.533-21.011,120.08,120.08,0,0,0-13.648-17.669,114.117,114.117,0,0,0-16.478-14.5,123.706,123.706,0,0,0-19.03-11.27,134.49,134.49,0,0,0-21.3-7.987,164.779,164.779,0,0,0-23.289-4.76A192.567,192.567,0,0,0,1024.678-335.256ZM-938.418,8.876a178.53,178.53,0,0,1-24.55-1.648,150.986,150.986,0,0,1-22.738-4.946,113.852,113.852,0,0,1-20.361-8.3,98.993,98.993,0,0,1-17.41-11.72,90.438,90.438,0,0,1-14.17-15.024,96.287,96.287,0,0,1-10.64-18.207,97.167,97.167,0,0,1-6.657-21.564,134.81,134.81,0,0,1-2.218-25.074v-.25h30.444l.019.229a117.5,117.5,0,0,0,3.341,20.1,80.916,80.916,0,0,0,6.393,16.8,79.179,79.179,0,0,0,9.051,13.747,69.039,69.039,0,0,0,11.309,10.913,77.174,77.174,0,0,0,13.406,8.2,86.391,86.391,0,0,0,15.335,5.6,127.617,127.617,0,0,0,16.878,3.229,147.712,147.712,0,0,0,18.016,1.076,142.656,142.656,0,0,0,20.281-1.359,95.957,95.957,0,0,0,17.32-4.075A84.272,84.272,0,0,0-881-29.784a61.213,61.213,0,0,0,11.417-8.308,60.167,60.167,0,0,0,8.646-10,56.788,56.788,0,0,0,6.046-11.47,69.386,69.386,0,0,0,3.562-12.553,73.233,73.233,0,0,0,1.188-13.234,64.122,64.122,0,0,0-2.147-17.185,41.942,41.942,0,0,0-6.43-13.54,63.452,63.452,0,0,0-9.892-10.684,71.177,71.177,0,0,0-12.5-8.539,137.959,137.959,0,0,0-31.723-12.009c-11.891-3.011-24.262-5.989-36.769-8.851s-24.889-6.3-36.8-10.221a126.274,126.274,0,0,1-16.945-6.937,108.382,108.382,0,0,1-14.9-8.987,75.363,75.363,0,0,1-12.584-11.445,80.946,80.946,0,0,1-9.962-14.289,65.924,65.924,0,0,1-6.495-17.83,104.4,104.4,0,0,1-2.162-22.015,79.143,79.143,0,0,1,1.765-16.624,83.381,83.381,0,0,1,5.294-16.166,78.87,78.87,0,0,1,8.767-15.03,86.782,86.782,0,0,1,12.18-13.2,90.537,90.537,0,0,1,15.649-11.04,119,119,0,0,1,19.165-8.531,125.986,125.986,0,0,1,22.518-5.459,173.007,173.007,0,0,1,25.688-1.819,165.712,165.712,0,0,1,25.974,1.933,117.119,117.119,0,0,1,22.464,5.8,108.781,108.781,0,0,1,18.941,9.158,87.243,87.243,0,0,1,15.424,12.009,88.78,88.78,0,0,1,11.951,14.512,87.833,87.833,0,0,1,8.537,16.675,101.376,101.376,0,0,1,5.12,18.319A109.69,109.69,0,0,1-828.3-237.9v.25h-30.01v-.25a86.912,86.912,0,0,0-1.641-17.316,63.03,63.03,0,0,0-4.917-14.81,64.044,64.044,0,0,0-7.744-12.324,58.374,58.374,0,0,0-10.115-9.832,73.873,73.873,0,0,0-12.1-7.466,80.63,80.63,0,0,0-13.691-5.2,110.408,110.408,0,0,0-29.9-4.077,133.681,133.681,0,0,0-21.694,1.642,83.845,83.845,0,0,0-17.936,4.922,82.646,82.646,0,0,0-14.427,7.524,59.888,59.888,0,0,0-11.133,9.438,61.216,61.216,0,0,0-8.026,10.964,55.132,55.132,0,0,0-5.084,12.089,57.337,57.337,0,0,0-2.147,12.657,55.257,55.257,0,0,0,.791,12.655,51.11,51.11,0,0,0,4.517,14.233,39.845,39.845,0,0,0,8.121,11.054,72.939,72.939,0,0,0,11.085,8.653A89.423,89.423,0,0,0-981-196.131a185.381,185.381,0,0,0,31.964,9.974c11.613,2.564,23.6,5.314,35.643,8.173a366.418,366.418,0,0,1,35.209,10.222,116.781,116.781,0,0,1,16.095,6.938,102.407,102.407,0,0,1,14.166,8.989,71.07,71.07,0,0,1,11.9,11.447,78.08,78.08,0,0,1,9.28,14.29,69.732,69.732,0,0,1,5.981,17.713,110,110,0,0,1,1.991,21.671,112.975,112.975,0,0,1-1.962,21.471,87.75,87.75,0,0,1-5.891,18.924,78.4,78.4,0,0,1-9.821,16.368,83.333,83.333,0,0,1-13.746,13.8A97.1,97.1,0,0,1-867.483-5.2a119.1,119.1,0,0,1-20.473,7.82A158.506,158.506,0,0,1-911.6,7.313,219.366,219.366,0,0,1-938.418,8.876ZM-1056.662-97.36a134.071,134.071,0,0,0,2.209,24.73,96.66,96.66,0,0,0,6.622,21.453,95.79,95.79,0,0,0,10.584,18.113,89.939,89.939,0,0,0,14.091,14.941,98.451,98.451,0,0,0,17.321,11.661A113.288,113.288,0,0,0-985.562,1.8,150.43,150.43,0,0,0-962.9,6.733a178.046,178.046,0,0,0,24.482,1.643,218.892,218.892,0,0,0,26.755-1.559,157.993,157.993,0,0,0,23.571-4.674,118.631,118.631,0,0,0,20.387-7.786A96.584,96.584,0,0,0-850.5-16.54a82.83,82.83,0,0,0,13.664-13.72,77.894,77.894,0,0,0,9.758-16.264,87.253,87.253,0,0,0,5.857-18.815,112.458,112.458,0,0,0,1.953-21.376,109.5,109.5,0,0,0-1.981-21.572,69.231,69.231,0,0,0-5.937-17.586,77.544,77.544,0,0,0-9.22-14.2,70.556,70.556,0,0,0-11.819-11.366,101.9,101.9,0,0,0-14.1-8.944,116.263,116.263,0,0,0-16.026-6.909A366,366,0,0,0-913.506-177.5c-12.036-2.859-24.025-5.608-35.635-8.171a185.838,185.838,0,0,1-32.05-10,89.942,89.942,0,0,1-13.431-7,73.453,73.453,0,0,1-11.161-8.713,40.346,40.346,0,0,1-8.223-11.192,51.61,51.61,0,0,1-4.563-14.37,55.765,55.765,0,0,1-.8-12.768,57.818,57.818,0,0,1,2.166-12.768,55.626,55.626,0,0,1,5.13-12.2,61.709,61.709,0,0,1,8.091-11.054,60.393,60.393,0,0,1,11.226-9.517,83.156,83.156,0,0,1,14.515-7.571,84.342,84.342,0,0,1,18.043-4.953,134.185,134.185,0,0,1,21.776-1.649,110.9,110.9,0,0,1,30.032,4.1,81.117,81.117,0,0,1,13.776,5.237,74.362,74.362,0,0,1,12.186,7.516,58.882,58.882,0,0,1,10.2,9.917,64.521,64.521,0,0,1,7.8,12.419,63.515,63.515,0,0,1,4.957,14.927,87.2,87.2,0,0,1,1.651,17.166h29.01a109.114,109.114,0,0,0-1.7-19.114,100.878,100.878,0,0,0-5.095-18.228,87.345,87.345,0,0,0-8.488-16.58,88.291,88.291,0,0,0-11.884-14.43A86.746,86.746,0,0,0-871.3-318.438a108.274,108.274,0,0,0-18.854-9.116,116.629,116.629,0,0,0-22.368-5.776,165.209,165.209,0,0,0-25.9-1.926,172.52,172.52,0,0,0-25.614,1.813,125.5,125.5,0,0,0-22.428,5.437,118.512,118.512,0,0,0-19.084,8.494,90.085,90.085,0,0,0-15.563,10.979,86.29,86.29,0,0,0-12.109,13.128,78.358,78.358,0,0,0-8.712,14.934,82.893,82.893,0,0,0-5.262,16.069,78.642,78.642,0,0,0-1.754,16.518,103.9,103.9,0,0,0,2.151,21.909,65.417,65.417,0,0,0,6.444,17.695,80.411,80.411,0,0,0,9.9,14.2,74.885,74.885,0,0,0,12.5,11.369,107.915,107.915,0,0,0,14.834,8.946,125.781,125.781,0,0,0,16.878,6.91c11.892,3.914,24.257,7.349,36.751,10.209,12.51,2.864,24.884,5.843,36.78,8.854a138.462,138.462,0,0,1,31.837,12.053,71.712,71.712,0,0,1,12.586,8.6,63.954,63.954,0,0,1,9.97,10.768,42.452,42.452,0,0,1,6.508,13.7,64.626,64.626,0,0,1,2.166,17.319,73.747,73.747,0,0,1-1.2,13.325,69.886,69.886,0,0,1-3.588,12.644,57.273,57.273,0,0,1-6.1,11.571,60.654,60.654,0,0,1-8.719,10.086,61.679,61.679,0,0,1-11.51,8.376,84.763,84.763,0,0,1-14.457,6.432,96.442,96.442,0,0,1-17.411,4.1,143.136,143.136,0,0,1-20.352,1.365,148.242,148.242,0,0,1-18.077-1.08,128.129,128.129,0,0,1-16.945-3.241,86.9,86.9,0,0,1-15.424-5.635,77.682,77.682,0,0,1-13.493-8.255A69.563,69.563,0,0,1-1008.3-46.66a79.671,79.671,0,0,1-9.109-13.834,81.4,81.4,0,0,1-6.433-16.907,117.725,117.725,0,0,1-3.337-19.96ZM813.364.25H777.113l-.074-.112-187.882-285h-.523V.25H557.262V-327.13H592.6l.074.112L781.468-41.564h.523V-327.13h31.372Zm-35.981-.5h35.481V-326.63H782.492V-41.064H781.2l-.074-.112L592.336-326.63H557.762V-.25h30.372V-285.362h1.293l.074.112ZM474.226.25H442.854V-327.13h31.372Zm-30.872-.5h30.372V-326.63H443.354ZM284.908.25H253.536V-300.3H150.024V-327.13h238.4V-300.3H284.908Zm-30.872-.5h30.372V-300.8H387.92V-326.63h-237.4V-300.8H254.036ZM95.59.25H64.218V-327.13H95.59ZM64.718-.25H95.09V-326.63H64.718ZM9.9.25H-22.42l-.06-.164L-60.1-102.354H-208.667L-247.257.25h-32.32l.134-.341L-150.9-327.13h35.3l.062.161Zm-31.969-.5H9.17L-115.942-326.63h-34.616L-278.843-.25h31.24l38.59-102.6H-59.754l.06.164Zm-339.12.5h-34.436l-.049-.186-75.769-288.558h-.523L-547.785.25h-34.436l-.049-.187L-666.794-327.13h31.39l.047.19,70.323,283.106h.521l75.818-283.3h34.888l.049.186,74.407,283.109h.52l71.278-283.3h32.3l-.082.314Zm-34.05-.5h33.664L-275.9-326.63h-31.261l-71.278,283.3h-1.3l-.049-.186L-454.193-326.63h-34.119l-75.818,283.3h-1.3l-.047-.19L-635.8-326.63h-30.354L-581.834-.25h33.664l75.818-288.744h1.294l.049.186Zm-728.613.5h-31.372V-327.13h31.372Zm-30.872-.5h30.372V-326.63h-30.372ZM-70.01-128.686H-198.758l.126-.337,64.248-172.24.234.628Zm-128.028-.5H-70.73l-63.654-170.647Z" transform="translate(729 1181.159)" fill="#eb4650"/>
  </g>
</svg>
